<svg width="18" height="23" viewBox="0 0 18 23" fill="none" xmlns="http://www.w3.org/2000/svg">
<path d="M7.52385 6.86815V6.34609V2.51997C7.52385 1.99304 7.32178 1.49116 6.96751 1.12387C6.61383 0.757192 6.13807 0.554688 5.64597 0.554688C5.15386 0.554688 4.6781 0.757192 4.32442 1.12387C3.97015 1.49116 3.76808 1.99304 3.76808 2.51997V10.0426V10.4496L3.3696 10.5322L1.73928 10.8702C1.73922 10.8703 1.73916 10.8703 1.7391 10.8703C1.73908 10.8703 1.73906 10.8703 1.73905 10.8703C1.36655 10.9478 1.03098 11.1681 0.801427 11.4936C0.571508 11.8197 0.466177 12.2261 0.509569 12.6321C0.509573 12.6322 0.509576 12.6322 0.50958 12.6322L0.978318 17.0073C0.978327 17.0074 0.978336 17.0075 0.978345 17.0076C0.978347 17.0076 0.97835 17.0076 0.978352 17.0077C1.03043 17.4904 1.19324 17.952 1.45195 18.354L1.45209 18.3542L3.39922 21.383C3.54149 21.6042 3.73299 21.7837 3.95535 21.9071C4.17759 22.0305 4.42452 22.0944 4.67443 22.0944L7.52385 6.86815ZM7.52385 6.86815L8.04543 6.84562M7.52385 6.86815L8.04543 6.84562M8.04543 6.84562L8.10906 6.84287M8.04543 6.84562L8.10906 6.84287M8.10906 6.84287C8.10931 6.84286 8.10957 6.84285 8.10983 6.84284C8.53223 6.82597 9.0547 6.82431 9.40845 6.89646C9.70755 6.96679 9.9953 7.08346 10.262 7.24293L10.262 7.24297L10.2684 7.24666C10.5131 7.38815 10.7067 7.61598 10.8116 7.8945L10.9463 8.25182L11.3264 8.21599L11.5021 8.19943C11.9269 8.16577 12.4694 8.16083 12.8404 8.31511L12.8408 8.31529C13.2166 8.47112 13.5822 8.85691 13.8385 9.1755L13.8391 9.17628C13.9245 9.28193 14.0067 9.39032 14.0856 9.50129L14.2351 9.71145H14.4931H15.2825C15.2825 9.71145 15.2825 9.71145 15.2825 9.71145C15.5896 9.71147 15.8938 9.77816 16.1757 9.90786C16.4577 10.0376 16.7117 10.2278 16.9207 10.4672C17.1298 10.7067 17.289 10.9901 17.3872 11.2994C17.4854 11.6088 17.5201 11.9365 17.4888 12.2613L17.4888 12.2613L17.1206 16.086C17.0607 16.7076 16.8753 17.3085 16.5771 17.8493L16.5771 17.8493L14.6816 21.288L14.6815 21.2881C14.545 21.5359 14.349 21.7396 14.1152 21.8803C13.8816 22.021 13.6178 22.0943 13.3503 22.0944C13.3503 22.0944 13.3502 22.0944 13.3501 22.0944H4.67447L8.10906 6.84287Z" fill="#F0F3FF" stroke="#0D2341"/>
</svg>
