<svg width="16" height="16" viewBox="0 0 16 16" fill="none" xmlns="http://www.w3.org/2000/svg">
<path d="M9.71429 2C9.24018 2 8.85714 2.38304 8.85714 2.85714C8.85714 3.33125 9.24018 3.71429 9.71429 3.71429H11.0723L6.5375 8.25179C6.20268 8.58661 6.20268 9.13036 6.5375 9.46518C6.87232 9.8 7.41607 9.8 7.75089 9.46518L12.2857 4.92768V6.28571C12.2857 6.75982 12.6688 7.14286 13.1429 7.14286C13.617 7.14286 14 6.75982 14 6.28571V2.85714C14 2.38304 13.617 2 13.1429 2H9.71429ZM4.14286 2.85714C2.95893 2.85714 2 3.81607 2 5V11.8571C2 13.0411 2.95893 14 4.14286 14H11C12.1839 14 13.1429 13.0411 13.1429 11.8571V9.71429C13.1429 9.24018 12.7598 8.85714 12.2857 8.85714C11.8116 8.85714 11.4286 9.24018 11.4286 9.71429V11.8571C11.4286 12.0929 11.2357 12.2857 11 12.2857H4.14286C3.90714 12.2857 3.71429 12.0929 3.71429 11.8571V5C3.71429 4.76429 3.90714 4.57143 4.14286 4.57143H6.28571C6.75982 4.57143 7.14286 4.18839 7.14286 3.71429C7.14286 3.24018 6.75982 2.85714 6.28571 2.85714H4.14286Z" fill="#F0F3FF"/>
</svg>
