<svg width="16" height="16" viewBox="0 0 16 16" fill="none" xmlns="http://www.w3.org/2000/svg">
<path d="M8 6.6C9.13333 6.6 10.04 5.655 10.04 4.5C10.04 3.345 9.13333 2.4 8 2.4C6.86667 2.4 5.96 3.345 5.96 4.5C5.96 5.655 6.86667 6.6 8 6.6ZM8 8C6.13333 8 4.62667 6.432 4.62667 4.5C4.62667 2.568 6.13333 1 8 1C9.86667 1 11.3733 2.568 11.3733 4.5C11.3733 6.432 9.86667 8 8 8ZM3.33333 13.6H12.6667V12.669C12.6667 11.444 11.1267 10.177 8 10.177C4.87333 10.177 3.33333 11.444 3.33333 12.669V13.6ZM8 8.777C12.44 8.777 14 11.108 14 12.669V15H2V12.669C2 11.108 3.56 8.777 8 8.777V8.777Z" fill="#F0F3FF"/>
</svg>
