<svg viewBox="0 0 512 512" xmlns="http://www.w3.org/2000/svg">
<path d="M191.138 91.8222L112.053 170.889H21.3333C9.54667 170.889 0 180.436 0 192.222V320.222C0 332 9.54667 341.556 21.3333 341.556H112.053L191.138 420.622C204.498 433.982 227.556 424.596 227.556 405.538V106.907C227.556 87.8311 204.48 78.48 191.138 91.8222ZM398.533 46.4178C388.604 39.9022 375.262 42.6489 368.747 52.5956C362.222 62.5244 364.996 75.8667 374.924 82.3822C433.831 121.04 468.987 186.027 468.987 256.231C468.987 326.436 433.831 391.422 374.924 430.08C364.996 436.587 362.222 449.938 368.747 459.858C375.004 469.378 388.24 472.8 398.533 466.036C469.573 419.404 512 340.96 512 256.222C512 171.484 469.573 93.0489 398.533 46.4178ZM426.667 256.222C426.667 199.751 398.169 147.831 350.427 117.342C340.48 110.996 327.289 113.947 320.987 123.973C314.684 134 317.627 147.271 327.573 153.627C362.907 176.196 384 214.542 384 256.222C384 297.902 362.907 336.249 327.573 358.818C317.627 365.164 314.684 378.436 320.987 388.471C326.773 397.68 339.76 401.929 350.427 395.102C398.169 364.613 426.667 312.702 426.667 256.222ZM300.649 187.893C290.356 182.267 277.369 185.973 271.662 196.293C265.982 206.613 269.742 219.582 280.062 225.28C291.538 231.582 298.667 243.449 298.667 256.222C298.667 269.004 291.538 280.862 280.071 287.164C269.751 292.862 265.991 305.831 271.671 316.151C277.387 326.516 290.382 330.196 300.658 324.551C325.751 310.729 341.342 284.551 341.342 256.213C341.342 227.876 325.751 201.707 300.649 187.893Z" />
</svg>
