<svg viewBox="0 0 512 512" xmlns="http://www.w3.org/2000/svg">
<path d="M190.249 92.2339L111.532 170.933H21.2342C9.50229 170.933 0 180.435 0 192.167V319.572C0 331.295 9.50229 340.806 21.2342 340.806H111.532L190.249 419.505C203.547 432.803 226.498 423.46 226.498 404.491V107.248C226.498 88.2613 203.529 78.9537 190.249 92.2339ZM408.439 255.87L448.82 215.489C454.393 209.915 454.393 200.873 448.82 195.299L428.629 175.109C423.055 169.535 414.013 169.535 408.439 175.109L368.059 215.489L327.679 175.109C322.105 169.535 313.062 169.535 307.488 175.109L287.298 195.299C281.724 200.873 281.724 209.915 287.298 215.489L327.679 255.87L287.307 296.241C281.733 301.815 281.733 310.857 287.307 316.431L307.497 336.621C313.071 342.195 322.113 342.195 327.687 336.621L368.059 296.25L408.439 336.63C414.013 342.204 423.055 342.204 428.629 336.63L448.82 316.44C454.393 310.866 454.393 301.824 448.82 296.25L408.439 255.87Z" />
</svg>
